HIERARCHY
ROOT Hips
{
	OFFSET 0.00000 0.00000 0.00000
	CHANNELS 6 Xposition Yposition Zposition Zrotation Yrotation Xrotation 
	JOINT LHipJoint
	{
		OFFSET 0 0 0
		CHANNELS 3 Zrotation Yrotation Xrotation
		JOINT LeftHip
		{
			OFFSET 1.58895 -1.83665 0.71753
			CHANNELS 3 Zrotation Yrotation Xrotation
			JOINT LeftKnee
			{
				OFFSET 2.50528 -6.88321 0.00000
				CHANNELS 3 Zrotation Yrotation Xrotation
				JOINT LeftAnkle
				{
					OFFSET 2.63244 -7.23257 0.00000
					CHANNELS 3 Zrotation Yrotation Xrotation
					JOINT LeftToe
					{
						OFFSET 0.23691 -0.65090 1.72750
						CHANNELS 3 Zrotation Yrotation Xrotation
						End Site
						{
							OFFSET 0.00000 -0.00000 0.92561
						}
					}
				}
			}
		}
	}
	JOINT RHipJoint
	{
		OFFSET 0 0 0
		CHANNELS 3 Zrotation Yrotation Xrotation
		JOINT RightHip
		{
			OFFSET -1.51435 -1.83665 0.71753
			CHANNELS 3 Zrotation Yrotation Xrotation
			JOINT RightKnee
			{
				OFFSET -2.54551 -6.99375 0.00000
				CHANNELS 3 Zrotation Yrotation Xrotation
				JOINT RightAnkle
				{
					OFFSET -2.66027 -7.30903 0.00000
					CHANNELS 3 Zrotation Yrotation Xrotation
					JOINT RightToe
					{
						OFFSET -0.22981 -0.63138 2.03959
						CHANNELS 3 Zrotation Yrotation Xrotation
						End Site
						{
							OFFSET -0.00000 -0.00000 1.07060
						}
					}
				}
			}
		}
	}
	JOINT lowerback
	{
		OFFSET 0 0 0
		CHANNELS 3 Zrotation Yrotation Xrotation
		JOINT Chest
		{
			OFFSET -0.02651 1.86275 -0.11152
			CHANNELS 3 Zrotation Yrotation Xrotation
			JOINT Chest2
			{
				OFFSET 0.01019 1.86224 0.04087
				CHANNELS 3 Zrotation Yrotation Xrotation
				JOINT lowerneck
				{
					OFFSET 0 0 0
					CHANNELS 3 Zrotation Yrotation Xrotation
					JOINT Neck
					{
						OFFSET -0.01926 1.80512 0.08867
						CHANNELS 3 Zrotation Yrotation Xrotation
						JOINT Head
						{
							OFFSET 0.05516 1.76451 -0.38475
							CHANNELS 3 Zrotation Yrotation Xrotation
							End Site
							{
								OFFSET 0.01592 1.82587 -0.14001
							}
						}
					}
				}
				JOINT LeftCollar
				{
					OFFSET 0 0 0
					CHANNELS 3 Zrotation Yrotation Xrotation
					JOINT LeftShoulder
					{
						OFFSET 3.47116 1.51376 0.14491
CHANNELS 3 Zrotation Xrotation Yrotation
						JOINT LeftElbow
						{
OFFSET 0 -4.780950 0.000000
CHANNELS 3 Zrotation Xrotation Yrotation
							JOINT LeftWrist
							{
OFFSET 0 -3.586150 -0.000000
CHANNELS 3 Zrotation Xrotation Yrotation
								JOINT lhand
								{
									OFFSET 0 0 0
CHANNELS 3 Zrotation Xrotation Yrotation
									JOINT LFingers
									{
OFFSET 0 -0.659810 0.000000
CHANNELS 3 Zrotation Xrotation Yrotation
										End Site
										{
OFFSET 0 -0.531960 0.000000
										}
									}
								}
								JOINT LThumb
								{
OFFSET 0 0.000000 0.000000
CHANNELS 3 Zrotation Xrotation Yrotation
									End Site
									{
OFFSET 0 -0.540080 0.540080
									}
								}
							}
						}
					}
				}
				JOINT RightCollar
				{
					OFFSET 0 0 0
					CHANNELS 3 Zrotation Yrotation Xrotation
					JOINT RightShoulder
					{
						OFFSET -3.31725 1.61216 0.35156
CHANNELS 3 Zrotation Xrotation Yrotation
						JOINT RightElbow
						{
OFFSET 0 -4.489130 0.000000
CHANNELS 3 Zrotation Xrotation Yrotation
							JOINT RightWrist
							{
OFFSET 0 -3.705100 0.000000
CHANNELS 3 Zrotation Xrotation Yrotation
								JOINT rhand
								{
									OFFSET 0 0 0
CHANNELS 3 Zrotation Xrotation Yrotation
									JOINT RFingers
									{
OFFSET 0 -0.449140 0.000000
CHANNELS 3 Zrotation Xrotation Yrotation
										End Site
										{
OFFSET 0 -0.362110 0.000000
										}
									}
								}
								JOINT RThumb
								{
OFFSET 0 0.000000 0.000000
CHANNELS 3 Zrotation Xrotation Yrotation
									End Site
									{
OFFSET 0 -0.367630 0.367630
									}
								}
							}
						}
					}
				}
			}
		}
	}
}
MOTION
Frames: 5
Frame Time: 0.008333333333333333
-0.667637 18.628752 6.676381 -3.786360 -2.612266 3.409084 0.000000 0.000000 0.000000 -12.321515 -11.501328 2.613501 1.312598 7.257044 20.479109 2.701850 10.863479 -36.338159 7.558013 -15.784335 -50.954696 0.000000 0.000000 0.000000 0.000000 0.000000 0.000000 0.000000 0.000000 0.000000 0.000000 0.000000 0.000000 0.000000 0.000000 0.000000 -0.846822 2.264300 1.123034 -0.522794 2.962025 -7.119322 -0.317181 1.495898 -8.093468 -2.803706 -2.181303 -13.321787 2.502217 -3.404858 38.020807 0.998017 -1.494246 15.775707 0.000000 0.000000 0.000000 44.951806 19.698988 9.608490 70.618477 -58.524430 43.298985 -1.490870 -37.125037 9.704864 0.000000 0.000000 0.000000 -7.125000 0.000000 0.000000 -20.036453 20.479360 -12.541758 0.000000 0.000000 0.000000 -38.784783 -8.865316 74.280043 -149.319359 -41.469685 -108.142218 26.621223 -59.011266 19.850506 0.000000 0.000000 0.000000 7.125000 0.000000 0.000000 48.112013 44.123836 1.399166
-0.649096 18.630564 6.658607 -3.688899 -2.271152 3.279003 0.000000 0.000000 0.000000 -12.389646 -11.400573 2.473122 1.322641 7.283576 20.558384 2.640703 10.748130 -35.945229 7.617418 -15.830466 -51.172549 0.000000 0.000000 0.000000 0.000000 0.000000 0.000000 0.000000 0.000000 0.000000 0.000000 0.000000 0.000000 0.000000 0.000000 0.000000 -0.752956 2.090982 1.357520 -0.379495 2.742582 -6.967995 -0.206753 1.386531 -8.067330 -2.767735 -2.204686 -12.735069 2.297235 -3.390784 38.095322 0.911922 -1.517495 15.664823 0.000000 0.000000 0.000000 42.759614 19.584967 10.192318 75.789179 -59.202391 47.727533 -4.555689 -35.663840 10.086251 0.000000 0.000000 0.000000 -7.125000 0.000000 0.000000 -22.029849 20.117602 -14.190356 0.000000 0.000000 0.000000 -37.103737 -5.478228 73.929002 -149.451252 -41.359095 -108.229441 28.693329 -58.889321 19.838466 0.000000 0.000000 0.000000 7.125000 0.000000 0.000000 49.439344 43.794904 2.018768
-0.633488 18.629779 6.640625 -3.617888 -2.024223 3.163536 0.000000 0.000000 0.000000 -12.418214 -11.224654 2.329858 1.330445 7.304113 20.619439 2.589727 10.632936 -35.602786 7.673693 -15.873926 -51.378702 0.000000 0.000000 0.000000 0.000000 0.000000 0.000000 0.000000 0.000000 0.000000 0.000000 0.000000 0.000000 0.000000 0.000000 0.000000 -0.685269 1.928302 1.450045 -0.213599 2.538795 -6.776539 -0.052236 1.287769 -7.916810 -2.625714 -2.174307 -12.203536 2.039368 -3.306911 38.281756 0.796484 -1.501882 15.617742 0.000000 0.000000 0.000000 39.558011 18.984483 11.971298 81.876110 -59.723685 52.972278 -6.926026 -34.718688 10.498644 0.000000 0.000000 0.000000 -7.125000 0.000000 0.000000 -23.518730 19.710254 -15.567834 0.000000 0.000000 0.000000 -34.759448 -3.286424 73.903550 -149.444553 -41.364740 -108.225009 29.542598 -58.748632 20.215447 0.000000 0.000000 0.000000 7.125000 0.000000 0.000000 50.235061 43.950821 1.806794
-0.619813 18.627028 6.622936 -3.581441 -1.895061 3.131889 0.000000 0.000000 0.000000 -12.385578 -10.940820 2.123758 1.333999 7.313591 20.647673 2.546898 10.363557 -35.203744 7.697249 -15.892009 -51.464795 0.000000 0.000000 0.000000 0.000000 0.000000 0.000000 0.000000 0.000000 0.000000 0.000000 0.000000 0.000000 0.000000 0.000000 0.000000 -0.580028 1.761148 1.376610 -0.034066 2.332256 -6.572964 0.101534 1.185893 -7.654904 -2.436896 -2.092273 -11.794079 1.760970 -3.148830 38.562644 0.675076 -1.449348 15.644858 0.000000 0.000000 0.000000 35.906404 18.137970 14.267845 88.540392 -59.976909 58.736360 -8.615588 -34.935235 10.531614 0.000000 0.000000 0.000000 -7.125000 0.000000 0.000000 -24.600587 19.647826 -16.473822 0.000000 0.000000 0.000000 -31.915255 -1.470868 74.068385 -149.276030 -41.505869 -108.113483 30.859947 -58.119393 20.311622 0.000000 0.000000 0.000000 7.125000 0.000000 0.000000 51.101003 43.812030 2.117379
-0.607580 18.620927 6.606567 -3.440776 -1.957091 3.162940 0.000000 0.000000 0.000000 -12.463288 -10.524043 1.856898 1.335251 7.316877 20.657724 2.526996 10.011916 -34.875993 7.695800 -15.890900 -51.459308 0.000000 0.000000 0.000000 0.000000 0.000000 0.000000 0.000000 0.000000 0.000000 0.000000 0.000000 0.000000 0.000000 0.000000 0.000000 -0.566255 1.621992 1.188070 0.108638 2.155468 -6.336494 0.267974 1.102552 -7.293397 -2.137687 -1.971758 -11.488011 1.343182 -2.903269 38.734538 0.486078 -1.362126 15.634744 0.000000 0.000000 0.000000 32.304474 16.933518 16.659152 94.944272 -59.902089 64.280248 -10.144955 -36.029998 9.798709 0.000000 0.000000 0.000000 -7.125000 0.000000 0.000000 -25.702484 20.277395 -16.973487 0.000000 0.000000 0.000000 -28.953876 -0.175558 74.459495 -148.991729 -41.741996 -107.924614 32.311069 -57.266389 20.502757 0.000000 0.000000 0.000000 7.125000 0.000000 0.000000 52.088598 43.718592 2.370245
